<mxfile host="Electron" agent="Mozilla/5.0 (Windows NT 10.0; Win64; x64) AppleWebKit/537.36 (KHTML, like Gecko) draw.io/28.2.8 Chrome/140.0.7339.240 Electron/38.4.0 Safari/537.36" version="28.2.8">
  <diagram name="Página-1" id="xiGNr5wKHVkt3qagoVlT">
    <mxGraphModel dx="906" dy="544" grid="1" gridSize="10" guides="1" tooltips="1" connect="1" arrows="1" fold="1" page="1" pageScale="1" pageWidth="1169" pageHeight="827" math="0" shadow="0">
      <root>
        <mxCell id="0" />
        <mxCell id="1" parent="0" />
        <mxCell id="ttRsa8oW1DgzqgJsf4SZ-3" value="" style="edgeStyle=orthogonalEdgeStyle;rounded=0;orthogonalLoop=1;jettySize=auto;html=1;" edge="1" parent="1" source="ttRsa8oW1DgzqgJsf4SZ-1" target="ttRsa8oW1DgzqgJsf4SZ-2">
          <mxGeometry relative="1" as="geometry" />
        </mxCell>
        <mxCell id="ttRsa8oW1DgzqgJsf4SZ-1" value="Concesionario" style="rounded=1;whiteSpace=wrap;html=1;" vertex="1" parent="1">
          <mxGeometry x="10" y="200" width="120" height="60" as="geometry" />
        </mxCell>
        <mxCell id="ttRsa8oW1DgzqgJsf4SZ-5" value="" style="edgeStyle=orthogonalEdgeStyle;rounded=0;orthogonalLoop=1;jettySize=auto;html=1;" edge="1" parent="1" target="ttRsa8oW1DgzqgJsf4SZ-4">
          <mxGeometry relative="1" as="geometry">
            <mxPoint x="249.99999999999977" y="150.0000000000001" as="sourcePoint" />
          </mxGeometry>
        </mxCell>
        <mxCell id="ttRsa8oW1DgzqgJsf4SZ-2" value="Revisa" style="rhombus;whiteSpace=wrap;html=1;rounded=1;" vertex="1" parent="1">
          <mxGeometry x="170" y="100" width="80" height="80" as="geometry" />
        </mxCell>
        <mxCell id="ttRsa8oW1DgzqgJsf4SZ-8" style="edgeStyle=orthogonalEdgeStyle;rounded=0;orthogonalLoop=1;jettySize=auto;html=1;exitX=0;exitY=1;exitDx=0;exitDy=0;" edge="1" parent="1" source="ttRsa8oW1DgzqgJsf4SZ-4" target="ttRsa8oW1DgzqgJsf4SZ-7">
          <mxGeometry relative="1" as="geometry" />
        </mxCell>
        <mxCell id="ttRsa8oW1DgzqgJsf4SZ-12" style="edgeStyle=orthogonalEdgeStyle;rounded=0;orthogonalLoop=1;jettySize=auto;html=1;exitX=0.25;exitY=1;exitDx=0;exitDy=0;entryX=0;entryY=0;entryDx=0;entryDy=0;" edge="1" parent="1" source="ttRsa8oW1DgzqgJsf4SZ-4" target="ttRsa8oW1DgzqgJsf4SZ-10">
          <mxGeometry relative="1" as="geometry" />
        </mxCell>
        <mxCell id="ttRsa8oW1DgzqgJsf4SZ-13" style="edgeStyle=orthogonalEdgeStyle;rounded=0;orthogonalLoop=1;jettySize=auto;html=1;exitX=0.75;exitY=1;exitDx=0;exitDy=0;entryX=0;entryY=0;entryDx=0;entryDy=0;" edge="1" parent="1" source="ttRsa8oW1DgzqgJsf4SZ-4" target="ttRsa8oW1DgzqgJsf4SZ-11">
          <mxGeometry relative="1" as="geometry" />
        </mxCell>
        <mxCell id="ttRsa8oW1DgzqgJsf4SZ-15" style="edgeStyle=orthogonalEdgeStyle;rounded=0;orthogonalLoop=1;jettySize=auto;html=1;exitX=1;exitY=1;exitDx=0;exitDy=0;entryX=0.5;entryY=0;entryDx=0;entryDy=0;" edge="1" parent="1" source="ttRsa8oW1DgzqgJsf4SZ-4" target="ttRsa8oW1DgzqgJsf4SZ-14">
          <mxGeometry relative="1" as="geometry" />
        </mxCell>
        <mxCell id="ttRsa8oW1DgzqgJsf4SZ-32" style="edgeStyle=orthogonalEdgeStyle;rounded=0;orthogonalLoop=1;jettySize=auto;html=1;exitX=0.5;exitY=1;exitDx=0;exitDy=0;entryX=0.5;entryY=0;entryDx=0;entryDy=0;" edge="1" parent="1" source="ttRsa8oW1DgzqgJsf4SZ-4" target="ttRsa8oW1DgzqgJsf4SZ-29">
          <mxGeometry relative="1" as="geometry" />
        </mxCell>
        <mxCell id="ttRsa8oW1DgzqgJsf4SZ-34" style="edgeStyle=orthogonalEdgeStyle;rounded=0;orthogonalLoop=1;jettySize=auto;html=1;exitX=1;exitY=0.5;exitDx=0;exitDy=0;entryX=0;entryY=0.5;entryDx=0;entryDy=0;" edge="1" parent="1" source="ttRsa8oW1DgzqgJsf4SZ-4" target="ttRsa8oW1DgzqgJsf4SZ-16">
          <mxGeometry relative="1" as="geometry" />
        </mxCell>
        <mxCell id="ttRsa8oW1DgzqgJsf4SZ-36" style="edgeStyle=orthogonalEdgeStyle;rounded=0;orthogonalLoop=1;jettySize=auto;html=1;exitX=0.75;exitY=0;exitDx=0;exitDy=0;entryX=0.5;entryY=1;entryDx=0;entryDy=0;" edge="1" parent="1" source="ttRsa8oW1DgzqgJsf4SZ-4" target="ttRsa8oW1DgzqgJsf4SZ-35">
          <mxGeometry relative="1" as="geometry" />
        </mxCell>
        <mxCell id="ttRsa8oW1DgzqgJsf4SZ-4" value="Coches" style="whiteSpace=wrap;html=1;rounded=1;" vertex="1" parent="1">
          <mxGeometry x="160" y="320" width="120" height="60" as="geometry" />
        </mxCell>
        <mxCell id="ttRsa8oW1DgzqgJsf4SZ-6" value="1:N" style="text;html=1;whiteSpace=wrap;strokeColor=none;fillColor=none;align=center;verticalAlign=middle;rounded=0;" vertex="1" parent="1">
          <mxGeometry x="170" y="160" width="60" height="30" as="geometry" />
        </mxCell>
        <mxCell id="ttRsa8oW1DgzqgJsf4SZ-7" value="&lt;u&gt;Matrícula&lt;/u&gt;&lt;div&gt;&lt;u&gt;PK&lt;/u&gt;&lt;/div&gt;" style="ellipse;whiteSpace=wrap;html=1;" vertex="1" parent="1">
          <mxGeometry x="50" y="460" width="60" height="40" as="geometry" />
        </mxCell>
        <mxCell id="ttRsa8oW1DgzqgJsf4SZ-10" value="Marca" style="ellipse;whiteSpace=wrap;html=1;" vertex="1" parent="1">
          <mxGeometry x="120" y="460" width="60" height="40" as="geometry" />
        </mxCell>
        <mxCell id="ttRsa8oW1DgzqgJsf4SZ-11" value="Modelo" style="ellipse;whiteSpace=wrap;html=1;" vertex="1" parent="1">
          <mxGeometry x="260" y="470" width="60" height="40" as="geometry" />
        </mxCell>
        <mxCell id="ttRsa8oW1DgzqgJsf4SZ-14" value="Precio de venta" style="ellipse;whiteSpace=wrap;html=1;" vertex="1" parent="1">
          <mxGeometry x="370" y="490" width="60" height="40" as="geometry" />
        </mxCell>
        <mxCell id="ttRsa8oW1DgzqgJsf4SZ-19" value="" style="edgeStyle=orthogonalEdgeStyle;rounded=0;orthogonalLoop=1;jettySize=auto;html=1;" edge="1" parent="1" source="ttRsa8oW1DgzqgJsf4SZ-16" target="ttRsa8oW1DgzqgJsf4SZ-18">
          <mxGeometry relative="1" as="geometry" />
        </mxCell>
        <mxCell id="ttRsa8oW1DgzqgJsf4SZ-16" value="Compra" style="rhombus;whiteSpace=wrap;html=1;rounded=1;" vertex="1" parent="1">
          <mxGeometry x="320" y="310" width="80" height="80" as="geometry" />
        </mxCell>
        <mxCell id="ttRsa8oW1DgzqgJsf4SZ-22" style="edgeStyle=orthogonalEdgeStyle;rounded=0;orthogonalLoop=1;jettySize=auto;html=1;exitX=0;exitY=1;exitDx=0;exitDy=0;entryX=0.5;entryY=0;entryDx=0;entryDy=0;" edge="1" parent="1" source="ttRsa8oW1DgzqgJsf4SZ-18" target="ttRsa8oW1DgzqgJsf4SZ-21">
          <mxGeometry relative="1" as="geometry" />
        </mxCell>
        <mxCell id="ttRsa8oW1DgzqgJsf4SZ-33" style="edgeStyle=orthogonalEdgeStyle;rounded=0;orthogonalLoop=1;jettySize=auto;html=1;exitX=0.5;exitY=1;exitDx=0;exitDy=0;entryX=0.5;entryY=0;entryDx=0;entryDy=0;" edge="1" parent="1" source="ttRsa8oW1DgzqgJsf4SZ-18" target="ttRsa8oW1DgzqgJsf4SZ-23">
          <mxGeometry relative="1" as="geometry" />
        </mxCell>
        <mxCell id="ttRsa8oW1DgzqgJsf4SZ-44" style="edgeStyle=orthogonalEdgeStyle;rounded=0;orthogonalLoop=1;jettySize=auto;html=1;exitX=1;exitY=0.75;exitDx=0;exitDy=0;entryX=0.5;entryY=0;entryDx=0;entryDy=0;" edge="1" parent="1" source="ttRsa8oW1DgzqgJsf4SZ-18" target="ttRsa8oW1DgzqgJsf4SZ-43">
          <mxGeometry relative="1" as="geometry" />
        </mxCell>
        <mxCell id="ttRsa8oW1DgzqgJsf4SZ-46" style="edgeStyle=orthogonalEdgeStyle;rounded=0;orthogonalLoop=1;jettySize=auto;html=1;exitX=1;exitY=0;exitDx=0;exitDy=0;entryX=0;entryY=0;entryDx=0;entryDy=0;" edge="1" parent="1" source="ttRsa8oW1DgzqgJsf4SZ-18" target="ttRsa8oW1DgzqgJsf4SZ-45">
          <mxGeometry relative="1" as="geometry" />
        </mxCell>
        <mxCell id="ttRsa8oW1DgzqgJsf4SZ-18" value="Cliente" style="whiteSpace=wrap;html=1;rounded=1;" vertex="1" parent="1">
          <mxGeometry x="550" y="384" width="120" height="60" as="geometry" />
        </mxCell>
        <mxCell id="ttRsa8oW1DgzqgJsf4SZ-20" value="1:N" style="text;html=1;whiteSpace=wrap;strokeColor=none;fillColor=none;align=center;verticalAlign=middle;rounded=0;" vertex="1" parent="1">
          <mxGeometry x="330" y="280" width="60" height="30" as="geometry" />
        </mxCell>
        <mxCell id="ttRsa8oW1DgzqgJsf4SZ-21" value="NIF" style="ellipse;whiteSpace=wrap;html=1;" vertex="1" parent="1">
          <mxGeometry x="540" y="510" width="60" height="40" as="geometry" />
        </mxCell>
        <mxCell id="ttRsa8oW1DgzqgJsf4SZ-23" value="Nombre" style="ellipse;whiteSpace=wrap;html=1;" vertex="1" parent="1">
          <mxGeometry x="600" y="490" width="60" height="40" as="geometry" />
        </mxCell>
        <mxCell id="ttRsa8oW1DgzqgJsf4SZ-29" value="Color" style="ellipse;whiteSpace=wrap;html=1;" vertex="1" parent="1">
          <mxGeometry x="190" y="460" width="60" height="40" as="geometry" />
        </mxCell>
        <mxCell id="ttRsa8oW1DgzqgJsf4SZ-38" value="" style="edgeStyle=orthogonalEdgeStyle;rounded=0;orthogonalLoop=1;jettySize=auto;html=1;entryX=0;entryY=0.5;entryDx=0;entryDy=0;" edge="1" parent="1" source="ttRsa8oW1DgzqgJsf4SZ-35" target="ttRsa8oW1DgzqgJsf4SZ-40">
          <mxGeometry relative="1" as="geometry">
            <mxPoint x="480" y="180" as="targetPoint" />
          </mxGeometry>
        </mxCell>
        <mxCell id="ttRsa8oW1DgzqgJsf4SZ-35" value="Pasa" style="rhombus;whiteSpace=wrap;html=1;" vertex="1" parent="1">
          <mxGeometry x="340" y="140" width="80" height="80" as="geometry" />
        </mxCell>
        <mxCell id="ttRsa8oW1DgzqgJsf4SZ-39" value="1:N" style="text;html=1;whiteSpace=wrap;strokeColor=none;fillColor=none;align=center;verticalAlign=middle;rounded=0;" vertex="1" parent="1">
          <mxGeometry x="350" y="100" width="60" height="30" as="geometry" />
        </mxCell>
        <mxCell id="ttRsa8oW1DgzqgJsf4SZ-48" style="edgeStyle=orthogonalEdgeStyle;rounded=0;orthogonalLoop=1;jettySize=auto;html=1;exitX=0;exitY=1;exitDx=0;exitDy=0;entryX=0;entryY=0;entryDx=0;entryDy=0;" edge="1" parent="1" source="ttRsa8oW1DgzqgJsf4SZ-40" target="ttRsa8oW1DgzqgJsf4SZ-47">
          <mxGeometry relative="1" as="geometry" />
        </mxCell>
        <mxCell id="ttRsa8oW1DgzqgJsf4SZ-50" style="edgeStyle=orthogonalEdgeStyle;rounded=0;orthogonalLoop=1;jettySize=auto;html=1;exitX=0.5;exitY=1;exitDx=0;exitDy=0;entryX=0;entryY=0;entryDx=0;entryDy=0;" edge="1" parent="1" source="ttRsa8oW1DgzqgJsf4SZ-40" target="ttRsa8oW1DgzqgJsf4SZ-49">
          <mxGeometry relative="1" as="geometry" />
        </mxCell>
        <mxCell id="ttRsa8oW1DgzqgJsf4SZ-54" style="edgeStyle=orthogonalEdgeStyle;rounded=0;orthogonalLoop=1;jettySize=auto;html=1;exitX=1;exitY=0.75;exitDx=0;exitDy=0;entryX=0.5;entryY=0;entryDx=0;entryDy=0;" edge="1" parent="1" source="ttRsa8oW1DgzqgJsf4SZ-40" target="ttRsa8oW1DgzqgJsf4SZ-51">
          <mxGeometry relative="1" as="geometry" />
        </mxCell>
        <mxCell id="ttRsa8oW1DgzqgJsf4SZ-40" value="Revisiones" style="rounded=1;whiteSpace=wrap;html=1;" vertex="1" parent="1">
          <mxGeometry x="480" y="150" width="120" height="60" as="geometry" />
        </mxCell>
        <mxCell id="ttRsa8oW1DgzqgJsf4SZ-41" value="Dirección" style="ellipse;whiteSpace=wrap;html=1;" vertex="1" parent="1">
          <mxGeometry x="640" y="540" width="60" height="40" as="geometry" />
        </mxCell>
        <mxCell id="ttRsa8oW1DgzqgJsf4SZ-42" style="edgeStyle=orthogonalEdgeStyle;rounded=0;orthogonalLoop=1;jettySize=auto;html=1;exitX=0.75;exitY=1;exitDx=0;exitDy=0;entryX=0.68;entryY=-0.013;entryDx=0;entryDy=0;entryPerimeter=0;" edge="1" parent="1" source="ttRsa8oW1DgzqgJsf4SZ-18" target="ttRsa8oW1DgzqgJsf4SZ-41">
          <mxGeometry relative="1" as="geometry">
            <Array as="points">
              <mxPoint x="680" y="444" />
              <mxPoint x="680" y="492" />
            </Array>
          </mxGeometry>
        </mxCell>
        <mxCell id="ttRsa8oW1DgzqgJsf4SZ-43" value="Ciudad" style="ellipse;whiteSpace=wrap;html=1;" vertex="1" parent="1">
          <mxGeometry x="690" y="500" width="60" height="40" as="geometry" />
        </mxCell>
        <mxCell id="ttRsa8oW1DgzqgJsf4SZ-45" value="&lt;u&gt;id_Cliente&lt;/u&gt;" style="ellipse;whiteSpace=wrap;html=1;" vertex="1" parent="1">
          <mxGeometry x="700" y="374" width="70" height="46" as="geometry" />
        </mxCell>
        <mxCell id="ttRsa8oW1DgzqgJsf4SZ-47" value="&lt;u&gt;Cod_Rev&lt;/u&gt;&lt;div&gt;&lt;u&gt;PK&lt;/u&gt;&lt;/div&gt;" style="ellipse;whiteSpace=wrap;html=1;" vertex="1" parent="1">
          <mxGeometry x="460" y="240" width="60" height="40" as="geometry" />
        </mxCell>
        <mxCell id="ttRsa8oW1DgzqgJsf4SZ-49" value="Matrícula&lt;div&gt;FK&lt;/div&gt;" style="ellipse;whiteSpace=wrap;html=1;" vertex="1" parent="1">
          <mxGeometry x="530" y="240" width="60" height="40" as="geometry" />
        </mxCell>
        <mxCell id="ttRsa8oW1DgzqgJsf4SZ-51" value="Revisiones" style="ellipse;whiteSpace=wrap;html=1;" vertex="1" parent="1">
          <mxGeometry x="610" y="220" width="60" height="40" as="geometry" />
        </mxCell>
      </root>
    </mxGraphModel>
  </diagram>
</mxfile>
